<svg xmlns="http://www.w3.org/2000/svg" viewBox="0 0 600 600" width="100%" height="100%">
  <defs>
    <!-- True Neon Glow Filter -->
    <filter id="neon-glow" x="-40%" y="-40%" width="180%" height="180%">
      <feGaussianBlur in="SourceGraphic" stdDeviation="3.5" result="glow" />
      <feGaussianBlur in="SourceGraphic" stdDeviation="8" result="softglow" />
      <feMerge>
        <feMergeNode in="softglow" />
        <feMergeNode in="glow" />
        <feMergeNode in="SourceGraphic" />
      </feMerge>
    </filter>
  </defs>

  <!-- Solid Pitch-Black Background -->
  <rect width="600" height="600" rx="48" fill="#000000" />

  <!-- Squircle Outer Frame -->
  <rect x="16" y="16" width="568" height="568" rx="80" fill="none" stroke="#39ff14" stroke-width="2" stroke-opacity="0.3" />
  <rect x="24" y="24" width="552" height="552" rx="72" fill="none" stroke="#39ff14" stroke-width="1" stroke-dasharray="20 12" stroke-opacity="0.2" />

  <!-- Outer Honeycomb Rosette Cluster (Surrounding Cells) -->
  <g class="surrounding-honeycomb">
    
        <!-- Solid Green Honeycomb Cell (Matching User Reference Image) -->
        <polygon points="189.15,143.00 241.98,173.50 241.98,234.50 189.15,265.00 136.32,234.50 136.32,173.50" 
                 fill="#39ff14" 
                 fill-opacity="0.9" 
                 stroke="#000000" 
                 stroke-width="3" 
                 filter="url(#neon-glow)" />
        <polygon points="189.15,154.00 232.45,179.00 232.45,229.00 189.15,254.00 145.85,229.00 145.85,179.00" 
                 fill="#000000" 
                 fill-opacity="0.4" />
        <circle cx="189.1" cy="204.0" r="2.5" fill="#39ff14" />
      

        <!-- Solid Green Honeycomb Cell (Matching User Reference Image) -->
        <polygon points="300.00,143.00 352.83,173.50 352.83,234.50 300.00,265.00 247.17,234.50 247.17,173.50" 
                 fill="#39ff14" 
                 fill-opacity="0.9" 
                 stroke="#000000" 
                 stroke-width="3" 
                 filter="url(#neon-glow)" />
        <polygon points="300.00,154.00 343.30,179.00 343.30,229.00 300.00,254.00 256.70,229.00 256.70,179.00" 
                 fill="#000000" 
                 fill-opacity="0.4" />
        <circle cx="300.0" cy="204.0" r="2.5" fill="#39ff14" />
      

        <!-- Solid Green Honeycomb Cell (Matching User Reference Image) -->
        <polygon points="410.85,143.00 463.68,173.50 463.68,234.50 410.85,265.00 358.02,234.50 358.02,173.50" 
                 fill="#39ff14" 
                 fill-opacity="0.9" 
                 stroke="#000000" 
                 stroke-width="3" 
                 filter="url(#neon-glow)" />
        <polygon points="410.85,154.00 454.15,179.00 454.15,229.00 410.85,254.00 367.55,229.00 367.55,179.00" 
                 fill="#000000" 
                 fill-opacity="0.4" />
        <circle cx="410.9" cy="204.0" r="2.5" fill="#39ff14" />
      

        <!-- Solid Green Honeycomb Cell (Matching User Reference Image) -->
        <polygon points="133.72,239.00 186.55,269.50 186.55,330.50 133.72,361.00 80.90,330.50 80.90,269.50" 
                 fill="#39ff14" 
                 fill-opacity="0.9" 
                 stroke="#000000" 
                 stroke-width="3" 
                 filter="url(#neon-glow)" />
        <polygon points="133.72,250.00 177.02,275.00 177.02,325.00 133.72,350.00 90.42,325.00 90.42,275.00" 
                 fill="#000000" 
                 fill-opacity="0.4" />
        <circle cx="133.7" cy="300.0" r="2.5" fill="#39ff14" />
      

        <!-- Solid Green Honeycomb Cell (Matching User Reference Image) -->
        <polygon points="466.28,239.00 519.10,269.50 519.10,330.50 466.28,361.00 413.45,330.50 413.45,269.50" 
                 fill="#39ff14" 
                 fill-opacity="0.9" 
                 stroke="#000000" 
                 stroke-width="3" 
                 filter="url(#neon-glow)" />
        <polygon points="466.28,250.00 509.58,275.00 509.58,325.00 466.28,350.00 422.98,325.00 422.98,275.00" 
                 fill="#000000" 
                 fill-opacity="0.4" />
        <circle cx="466.3" cy="300.0" r="2.5" fill="#39ff14" />
      

        <!-- Solid Green Honeycomb Cell (Matching User Reference Image) -->
        <polygon points="189.15,335.00 241.98,365.50 241.98,426.50 189.15,457.00 136.32,426.50 136.32,365.50" 
                 fill="#39ff14" 
                 fill-opacity="0.9" 
                 stroke="#000000" 
                 stroke-width="3" 
                 filter="url(#neon-glow)" />
        <polygon points="189.15,346.00 232.45,371.00 232.45,421.00 189.15,446.00 145.85,421.00 145.85,371.00" 
                 fill="#000000" 
                 fill-opacity="0.4" />
        <circle cx="189.1" cy="396.0" r="2.5" fill="#39ff14" />
      

        <!-- Solid Green Honeycomb Cell (Matching User Reference Image) -->
        <polygon points="300.00,335.00 352.83,365.50 352.83,426.50 300.00,457.00 247.17,426.50 247.17,365.50" 
                 fill="#39ff14" 
                 fill-opacity="0.9" 
                 stroke="#000000" 
                 stroke-width="3" 
                 filter="url(#neon-glow)" />
        <polygon points="300.00,346.00 343.30,371.00 343.30,421.00 300.00,446.00 256.70,421.00 256.70,371.00" 
                 fill="#000000" 
                 fill-opacity="0.4" />
        <circle cx="300.0" cy="396.0" r="2.5" fill="#39ff14" />
      

        <!-- Solid Green Honeycomb Cell (Matching User Reference Image) -->
        <polygon points="410.85,335.00 463.68,365.50 463.68,426.50 410.85,457.00 358.02,426.50 358.02,365.50" 
                 fill="#39ff14" 
                 fill-opacity="0.9" 
                 stroke="#000000" 
                 stroke-width="3" 
                 filter="url(#neon-glow)" />
        <polygon points="410.85,346.00 454.15,371.00 454.15,421.00 410.85,446.00 367.55,421.00 367.55,371.00" 
                 fill="#000000" 
                 fill-opacity="0.4" />
        <circle cx="410.9" cy="396.0" r="2.5" fill="#39ff14" />
      
  </g>

  <!-- Center Core SP27 Hexagons -->
  <g class="sp27-core">
    
    <!-- Left Hexagon Outer Shell -->
    <polygon points="244.57,238.00 298.27,269.00 298.27,331.00 244.57,362.00 190.88,331.00 190.88,269.00" 
             fill="#030803" 
             stroke="#39ff14" 
             stroke-width="4" 
             filter="url(#neon-glow)" />
    <!-- Tactical Corner Cutouts -->
    <line x1="220.57437415779594" y1="238" x2="268.57437415779594" y2="238" stroke="#000" stroke-width="6" />
    <line x1="220.57437415779594" y1="362" x2="268.57437415779594" y2="362" stroke="#000" stroke-width="6" />
  
    
    <!-- Right Hexagon Outer Shell -->
    <polygon points="355.43,238.00 409.12,269.00 409.12,331.00 355.43,362.00 301.73,331.00 301.73,269.00" 
             fill="#030803" 
             stroke="#39ff14" 
             stroke-width="4" 
             filter="url(#neon-glow)" />
    <!-- Tactical Corner Cutouts -->
    <line x1="331.42562584220406" y1="238" x2="379.42562584220406" y2="238" stroke="#000" stroke-width="6" />
    <line x1="331.42562584220406" y1="362" x2="379.42562584220406" y2="362" stroke="#000" stroke-width="6" />
  
    
    <!-- S Glyph (Hex-formed) -->
    <path d="M 238.57437415779594 250
             L 202.57437415779594 270
             L 202.57437415779594 290
             L 238.57437415779594 296
             L 238.57437415779594 304
             L 202.57437415779594 310
             L 202.57437415779594 330
             L 238.57437415779594 350"
          fill="none" 
          stroke="#39ff14" 
          stroke-width="9" 
          stroke-linecap="round" 
          stroke-linejoin="round" 
          filter="url(#neon-glow)" />
  
    
    <!-- P Glyph (Hex-formed) -->
    <!-- Vertical Spine -->
    <path d="M 244.57437415779594 250
             L 244.57437415779594 350"
          fill="none" 
          stroke="#39ff14" 
          stroke-width="9" 
          stroke-linecap="round" 
          filter="url(#neon-glow)" />
    <!-- Loop -->
    <path d="M 244.57437415779594 250
             L 282.57437415779594 270
             L 282.57437415779594 294
             L 244.57437415779594 302"
          fill="none" 
          stroke="#39ff14" 
          stroke-width="9" 
          stroke-linecap="round" 
          stroke-linejoin="round" 
          filter="url(#neon-glow)" />
  
    
    <!-- 2 Glyph (Hex-formed) -->
    <path d="M 317.42562584220406 270
             L 347.42562584220406 250
             L 349.42562584220406 288
             L 317.42562584220406 328
             L 349.42562584220406 328"
          fill="none" 
          stroke="#39ff14" 
          stroke-width="9" 
          stroke-linecap="round" 
          stroke-linejoin="round" 
          filter="url(#neon-glow)" />
  
    
    <!-- 7 Glyph (Hex-formed) -->
    <path d="M 355.42562584220406 250
             L 397.42562584220406 250
             L 365.42562584220406 350"
          fill="none" 
          stroke="#39ff14" 
          stroke-width="9" 
          stroke-linecap="round" 
          stroke-linejoin="round" 
          filter="url(#neon-glow)" />
    <!-- 7 Middle Cyber Notch -->
    <line x1="371.42562584220406" y1="304" x2="389.42562584220406" y2="304" 
          stroke="#39ff14" stroke-width="6" stroke-linecap="round" filter="url(#neon-glow)" />
  
    
    <!-- Inter-hex Cyber Pulse Bridge -->
    <line x1="264.57437415779594" y1="316" x2="335.42562584220406" y2="292" 
          stroke="#39ff14" stroke-width="5" stroke-linecap="round" filter="url(#neon-glow)" />
  
  </g>
</svg>